<svg xmlns="http://www.w3.org/2000/svg" viewBox="0 0 518.02 95.57"><defs><style>.cls-1{fill:#003a82;}</style></defs><title>TH-FullLogo-Primary-Blue</title><g id="Layer_2" data-name="Layer 2"><g id="Full_Logo" data-name="Full Logo"><path class="cls-1" d="M128,61.15V44.74h-4.49a1,1,0,0,1-.77-.36,1.19,1.19,0,0,1-.32-.86V40.76a1.19,1.19,0,0,1,.32-.86,1,1,0,0,1,.77-.36H128V30.37a1.07,1.07,0,0,1,1.21-1.21H133a1.07,1.07,0,0,1,.83.34,1.28,1.28,0,0,1,.32.87v9.17h9.3a1.05,1.05,0,0,1,.83.36,1.24,1.24,0,0,1,.32.86v2.76a1.18,1.18,0,0,1-.35.86,1.14,1.14,0,0,1-.8.36h-9.3V59.93a4.68,4.68,0,0,0,1.25,3.52,4.12,4.12,0,0,0,3,1.23,6.59,6.59,0,0,0,3.33-1c.91-.56,1.61-.5,2.12.19L145.2,66a1.21,1.21,0,0,1-.19,1.79,11.08,11.08,0,0,1-7.63,2.49,9.92,9.92,0,0,1-6.64-2.3C128.92,66.47,128,64.18,128,61.15Z"/><path class="cls-1" d="M176.48,68.71V53.46a9.42,9.42,0,0,0-2.24-6.7A8.17,8.17,0,0,0,168,44.35a8.69,8.69,0,0,0-6.51,2.53A9,9,0,0,0,159,53.46V68.71a1,1,0,0,1-.35.78,1.18,1.18,0,0,1-.8.32H154a1.16,1.16,0,0,1-.8-.32,1.09,1.09,0,0,1-.36-.84V26.08a1,1,0,0,1,.36-.83,1.12,1.12,0,0,1,.8-.32h3.85a1.13,1.13,0,0,1,.8.32A1,1,0,0,1,159,26V44a9.9,9.9,0,0,1,4.17-3.85,13.82,13.82,0,0,1,6.48-1.47,12.58,12.58,0,0,1,9.48,3.65,13.12,13.12,0,0,1,3.53,9.49V68.71a1,1,0,0,1-.35.78,1.28,1.28,0,0,1-.87.32H177.7a1.24,1.24,0,0,1-.86-.32A1,1,0,0,1,176.48,68.71Z"/><path class="cls-1" d="M206.81,39.36h1c.81,0,1.22.42,1.22,1.28v3.78c0,.85-.41,1.28-1.22,1.28h-1.28q-7.38,0-7.37,8.91v14.1a1,1,0,0,1-.36.78,1.16,1.16,0,0,1-.8.32h-3.84a1.15,1.15,0,0,1-.84-.32,1.17,1.17,0,0,1-.32-.84V40.76a1.24,1.24,0,0,1,.32-.86,1.07,1.07,0,0,1,.84-.36h3.59a1.22,1.22,0,0,1,1.15,1.16v3.72A8.87,8.87,0,0,1,202,40.8,8.27,8.27,0,0,1,206.81,39.36Z"/><path class="cls-1" d="M222.68,32.75a4.26,4.26,0,0,1-6.09,0,4.19,4.19,0,0,1-1.25-3,4.29,4.29,0,0,1,1.25-3.08,4.26,4.26,0,0,1,6.09,0,4.29,4.29,0,0,1,1.25,3.08A4.19,4.19,0,0,1,222.68,32.75Zm-1.12,37.06h-3.79a1.21,1.21,0,0,1-1.21-1.22V40.76a1.07,1.07,0,0,1,1.21-1.22h3.79a1.05,1.05,0,0,1,.83.36,1.19,1.19,0,0,1,.32.86V68.59a1.15,1.15,0,0,1-.35.86A1.1,1.1,0,0,1,221.56,69.81Z"/><path class="cls-1" d="M248.29,69.81h-5.7a1.58,1.58,0,0,1-1.54-1.16L230.66,41.08a1.19,1.19,0,0,1,.1-1.06,1,1,0,0,1,.93-.48H236a1.36,1.36,0,0,1,1.41,1.1l8.21,23,7.89-23a1.36,1.36,0,0,1,1.41-1.1h4.23a1.08,1.08,0,0,1,1,.48,1.05,1.05,0,0,1,.07,1.06L249.9,68.65A1.64,1.64,0,0,1,248.29,69.81Z"/><path class="cls-1" d="M282.08,38.65a14.9,14.9,0,0,1,15.33,15.26v1.15a1.07,1.07,0,0,1-1.22,1.21H272.72a9.63,9.63,0,0,0,3,6.52,9.4,9.4,0,0,0,6.63,2.53,10.64,10.64,0,0,0,8.28-3.85,1.11,1.11,0,0,1,1.6-.26l2.82,1.87a1,1,0,0,1,.25,1.6q-4.43,6-13.08,6a15.41,15.41,0,0,1-15.9-15.9,15.87,15.87,0,0,1,4.49-11.41A14.88,14.88,0,0,1,282.08,38.65Zm9.24,13.46a9.17,9.17,0,0,0-3-6.09,9,9,0,0,0-6.15-2.24,8.87,8.87,0,0,0-6.16,2.3,9.84,9.84,0,0,0-3.14,6Z"/><path class="cls-1" d="M347.22,68.71V53.46a9.47,9.47,0,0,0-2.24-6.7,8.2,8.2,0,0,0-6.29-2.41,8.68,8.68,0,0,0-6.5,2.53,9,9,0,0,0-2.47,6.58V68.71a1,1,0,0,1-.35.78,1.2,1.2,0,0,1-.81.32h-3.84a1.16,1.16,0,0,1-.8-.32,1.09,1.09,0,0,1-.36-.84V26.08a1,1,0,0,1,.36-.83,1.12,1.12,0,0,1,.8-.32h3.84a1.16,1.16,0,0,1,.81.32,1,1,0,0,1,.35.76V44a9.82,9.82,0,0,1,4.16-3.85,13.84,13.84,0,0,1,6.48-1.47,12.6,12.6,0,0,1,9.49,3.65,13.12,13.12,0,0,1,3.52,9.49V68.71a1,1,0,0,1-.35.78,1.24,1.24,0,0,1-.86.32h-3.72a1.28,1.28,0,0,1-.87-.32A1,1,0,0,1,347.22,68.71Z"/><path class="cls-1" d="M377.61,38.65a14.89,14.89,0,0,1,15.32,15.26v1.15a1.07,1.07,0,0,1-1.21,1.21H368.25a9.59,9.59,0,0,0,3.05,6.52,9.4,9.4,0,0,0,6.63,2.53,10.61,10.61,0,0,0,8.27-3.85,1.11,1.11,0,0,1,1.6-.26l2.83,1.87a1,1,0,0,1,.25,1.6q-4.42,6-13.08,6a15.41,15.41,0,0,1-15.9-15.9,15.87,15.87,0,0,1,4.49-11.41A14.88,14.88,0,0,1,377.61,38.65Zm9.23,13.46a9.16,9.16,0,0,0-3-6.09,9,9,0,0,0-6.16-2.24,8.87,8.87,0,0,0-6.15,2.3,9.84,9.84,0,0,0-3.14,6Z"/><path class="cls-1" d="M403.93,66.12a15.71,15.71,0,0,1-4.46-11.51A15.57,15.57,0,0,1,404,43.13a14.68,14.68,0,0,1,10.77-4.48,12.36,12.36,0,0,1,6.26,1.6,10,10,0,0,1,4.06,4.1V40.76a1.23,1.23,0,0,1,1.23-1.22h3.78a1.05,1.05,0,0,1,.83.36,1.24,1.24,0,0,1,.32.86V68.65a1.12,1.12,0,0,1-.35.84,1.18,1.18,0,0,1-.8.32h-3.78a1.15,1.15,0,0,1-.87-.36,1.1,1.1,0,0,1-.36-.8V65a10.23,10.23,0,0,1-4.1,4.07,12.43,12.43,0,0,1-6.28,1.57A14.55,14.55,0,0,1,403.93,66.12Zm4.58-18.75a10.26,10.26,0,0,0-2.75,7.3A10.41,10.41,0,0,0,408.51,62a9.07,9.07,0,0,0,6.93,3,8.93,8.93,0,0,0,6.92-3,10.41,10.41,0,0,0,2.76-7.31,10.27,10.27,0,0,0-2.76-7.3,9.6,9.6,0,0,0-13.85,0Z"/><path class="cls-1" d="M449.36,69.81a7.78,7.78,0,0,1-5.62-1.9,7.38,7.38,0,0,1-1.95-5.54V26.14a1.18,1.18,0,0,1,.35-.83,1.1,1.1,0,0,1,.87-.38h3.78c.77,0,1.15.4,1.15,1.21V61.41q0,3.2,3.21,3.2h1.6c.81,0,1.22.39,1.22,1.15v2.7c0,.89-.49,1.35-1.47,1.35Z"/><path class="cls-1" d="M463.39,61.15V44.74h-4.48a1,1,0,0,1-.77-.36,1.2,1.2,0,0,1-.33-.86V40.76a1.2,1.2,0,0,1,.33-.86,1,1,0,0,1,.77-.36h4.48V30.37a1.07,1.07,0,0,1,1.22-1.21h3.79a1.07,1.07,0,0,1,.83.34,1.28,1.28,0,0,1,.32.87v9.17h9.3a1.07,1.07,0,0,1,.83.36,1.24,1.24,0,0,1,.32.86v2.76a1.18,1.18,0,0,1-.35.86,1.16,1.16,0,0,1-.8.36h-9.3V59.93a4.68,4.68,0,0,0,1.25,3.52,4.1,4.1,0,0,0,3,1.23,6.62,6.62,0,0,0,3.33-1c.9-.56,1.61-.5,2.12.19L480.58,66a1.21,1.21,0,0,1-.19,1.79,11.11,11.11,0,0,1-7.64,2.49,9.91,9.91,0,0,1-6.63-2.3Q463.39,65.7,463.39,61.15Z"/><path class="cls-1" d="M511.87,68.71V53.46a9.43,9.43,0,0,0-2.25-6.7,8.17,8.17,0,0,0-6.28-2.41,8.71,8.71,0,0,0-6.51,2.53,9,9,0,0,0-2.47,6.58V68.71a1,1,0,0,1-.35.78,1.16,1.16,0,0,1-.8.32h-3.85a1.16,1.16,0,0,1-.8-.32,1.08,1.08,0,0,1-.35-.84V26.08a1,1,0,0,1,.35-.83,1.12,1.12,0,0,1,.8-.32h3.85a1.12,1.12,0,0,1,.8.32,1,1,0,0,1,.35.76V44a9.9,9.9,0,0,1,4.17-3.85A13.82,13.82,0,0,1,505,38.71a12.62,12.62,0,0,1,9.49,3.65A13.16,13.16,0,0,1,518,51.85V68.71a1,1,0,0,1-.35.78,1.28,1.28,0,0,1-.87.32h-3.72a1.24,1.24,0,0,1-.86-.32A1,1,0,0,1,511.87,68.71Z"/><path class="cls-1" d="M76.82,26a26,26,0,0,1,3.09-10.33H71.56A14.72,14.72,0,0,0,56.83,30.39v8.35h8.35C72.52,38.74,76.3,32.07,76.82,26Z"/><path class="cls-1" d="M60.31,10.34A26.18,26.18,0,0,1,63.4,0H55.06A14.73,14.73,0,0,0,40.33,14.73v8.35h8.34C56,23.08,59.8,16.41,60.31,10.34Z"/><path class="cls-1" d="M69.57,76.82a26.07,26.07,0,0,1,10.34,3.09V71.56A14.73,14.73,0,0,0,65.18,56.83H56.83v8.35C56.83,72.52,63.5,76.3,69.57,76.82Z"/><path class="cls-1" d="M85.23,60.31A26.26,26.26,0,0,1,95.57,63.4V55.06A14.73,14.73,0,0,0,80.84,40.33H72.49v8.34C72.49,56,79.16,59.8,85.23,60.31Z"/><path class="cls-1" d="M18.75,69.57a26.07,26.07,0,0,1-3.09,10.34H24A14.74,14.74,0,0,0,38.74,65.18V56.83H30.39C23.05,56.83,19.26,63.5,18.75,69.57Z"/><path class="cls-1" d="M35.25,85.23a26.07,26.07,0,0,1-3.09,10.34h8.35A14.73,14.73,0,0,0,55.24,80.84V72.49H46.89C39.55,72.49,35.77,79.16,35.25,85.23Z"/><path class="cls-1" d="M26,18.75a26,26,0,0,1-10.33-3.09V24A14.73,14.73,0,0,0,30.39,38.74h8.35V30.39C38.74,23.05,32.07,19.26,26,18.75Z"/><path class="cls-1" d="M10.34,35.25A26,26,0,0,1,0,32.16v8.35A14.73,14.73,0,0,0,14.73,55.24h8.35V46.89C23.08,39.55,16.41,35.77,10.34,35.25Z"/></g></g></svg>